<?xml version="1.0" encoding="UTF-8"?>
<svg version="1.1" xmlns="http://www.w3.org/2000/svg" width="32" height="32">
<path d="M0 0 C10.56 0 21.12 0 32 0 C32 10.56 32 21.12 32 32 C21.44 32 10.88 32 0 32 C0 21.44 0 10.88 0 0 Z " fill="#CDF4F6" transform="translate(0,0)"/>
<path d="M0 0 C5.61 0 11.22 0 17 0 C17 10.56 17 21.12 17 32 C13.7 32 10.4 32 7 32 C4 28 4 28 4.375 24.375 C4.58125 23.26125 4.7875 22.1475 5 21 C4.67 20.34 4.34 19.68 4 19 C3.95977609 16.6670134 3.95679753 14.33293334 4 12 C4.66 12.33 5.32 12.66 6 13 C6 12.34 6 11.68 6 11 C5.34 11 4.68 11 4 11 C4.33 9.02 4.66 7.04 5 5 C3.68 5 2.36 5 1 5 C0.67 3.35 0.34 1.7 0 0 Z " fill="#E4F4F7" transform="translate(15,0)"/>
<path d="M0 0 C1.98 0 3.96 0 6 0 C6.33 1.65 6.66 3.3 7 5 C8.32 5 9.64 5 11 5 C10.67 6.98 10.34 8.96 10 11 C11.32 10.34 12.64 9.68 14 9 C13.67 10.98 13.34 12.96 13 15 C12.34 14.34 11.68 13.68 11 13 C10.90127549 17.14642936 11.2906141 20.92103107 12 25 C12 26.32 12 27.64 12 29 C12.33 29.99 12.66 30.98 13 32 C10.03 32 7.06 32 4 32 C4 28.7 4 25.4 4 22 C3.01 22 2.02 22 1 22 C1 22.99 1 23.98 1 25 C0.01 25.33 -0.98 25.66 -2 26 C-4 23 -4 23 -4 20 C-3.01 19.67 -2.02 19.34 -1 19 C-1.33 20.32 -1.66 21.64 -2 23 C-1.34 23 -0.68 23 0 23 C0.09038099 17.84828377 -0.15318867 13.08086796 -1 8 C0.98 7.01 2.96 6.02 5 5 C4.34 4.34 3.68 3.68 3 3 C2.01 3.33 1.02 3.66 0 4 C0 2.68 0 1.36 0 0 Z " fill="#D2C2E0" transform="translate(9,0)"/>
<path d="M0 0 C5.61 0 11.22 0 17 0 C17 4.29 17 8.58 17 13 C15.5975 13.433125 14.195 13.86625 12.75 14.3125 C9.34960694 15.43703944 6.68418036 16.54922663 4 19 C4 16.69 4 14.38 4 12 C4.66 12.33 5.32 12.66 6 13 C6 12.34 6 11.68 6 11 C5.34 11 4.68 11 4 11 C4.33 9.02 4.66 7.04 5 5 C3.68 5 2.36 5 1 5 C0.67 3.35 0.34 1.7 0 0 Z " fill="#C9F4F7" transform="translate(15,0)"/>
<path d="M0 0 C0.33 0.99 0.66 1.98 1 3 C1.66 3 2.32 3 3 3 C3 4.98 3 6.96 3 9 C3.66 9 4.32 9 5 9 C5.33 10.65 5.66 12.3 6 14 C5.01 14.33 4.02 14.66 3 15 C3.56371414 18.26954202 4.49962266 19.82575883 7 22 C6.67 22.66 6.34 23.32 6 24 C4.35 24 2.7 24 1 24 C1 20.7 1 17.4 1 14 C0.01 14 -0.98 14 -2 14 C-2 14.99 -2 15.98 -2 17 C-2.99 17.33 -3.98 17.66 -5 18 C-7 15 -7 15 -7 12 C-6.01 11.67 -5.02 11.34 -4 11 C-4.33 12.32 -4.66 13.64 -5 15 C-4.34 15 -3.68 15 -3 15 C-2.95101563 14.41992188 -2.90203125 13.83984375 -2.8515625 13.2421875 C-2.40350595 8.56076908 -1.701979 4.42514541 0 0 Z " fill="#B099B3" transform="translate(12,8)"/>
<path d="M0 0 C1.98 0 3.96 0 6 0 C6.33 1.65 6.66 3.3 7 5 C8.32 5 9.64 5 11 5 C10.60196439 7.88575819 10.20990931 8.82189513 7.9375 10.75 C7.298125 11.1625 6.65875 11.575 6 12 C5.34 11.67 4.68 11.34 4 11 C2.68 12.32 1.36 13.64 0 15 C-0.33 12.69 -0.66 10.38 -1 8 C0.98 7.01 2.96 6.02 5 5 C4.34 4.34 3.68 3.68 3 3 C2.01 3.33 1.02 3.66 0 4 C0 2.68 0 1.36 0 0 Z " fill="#D1C4D5" transform="translate(9,0)"/>
<path d="M0 0 C0 1.98 0 3.96 0 6 C-0.90492187 6.27263672 -0.90492187 6.27263672 -1.828125 6.55078125 C-7.85585198 8.41987906 -7.85585198 8.41987906 -13 12 C-13 9.69 -13 7.38 -13 5 C-12.01 5.495 -12.01 5.495 -11 6 C-10.38125 4.7934375 -10.38125 4.7934375 -9.75 3.5625 C-8 1 -8 1 -6.0625 0.1875 C-4.04900352 0.00445487 -2.0217996 0 0 0 Z " fill="#B4DEF4" transform="translate(32,7)"/>
<path d="M0 0 C0.66 0 1.32 0 2 0 C2.12117187 0.81984375 2.24234375 1.6396875 2.3671875 2.484375 C2.53476562 3.56203125 2.70234375 4.6396875 2.875 5.75 C3.03742188 6.81734375 3.19984375 7.8846875 3.3671875 8.984375 C3.93223882 11.67708871 4.63422914 13.63572439 6 16 C4.6875 18 4.6875 18 3 20 C2.01 20 1.02 20 0 20 C0 13.4 0 6.8 0 0 Z " fill="#BAF3FA" transform="translate(0,0)"/>
<path d="M0 0 C0.99 0 1.98 0 3 0 C3 3.3 3 6.6 3 10 C0.03 10 -2.94 10 -6 10 C-6 8.68 -6 7.36 -6 6 C-5.01 6 -4.02 6 -3 6 C-2.67 5.01 -2.34 4.02 -2 3 C-1.34 3 -0.68 3 0 3 C0 2.01 0 1.02 0 0 Z " fill="#BAB8C3" transform="translate(10,22)"/>
<path d="M0 0 C1.32 0 2.64 0 4 0 C4.33 1.32 4.66 2.64 5 4 C5.66 4 6.32 4 7 4 C7 5.32 7 6.64 7 8 C6.01 8 5.02 8 4 8 C4 9.32 4 10.64 4 12 C2.68 12 1.36 12 0 12 C0 8.04 0 4.08 0 0 Z " fill="#F0F8F9" transform="translate(0,20)"/>
<path d="M0 0 C0.33 0 0.66 0 1 0 C4.31707317 10.36585366 4.31707317 10.36585366 2 15 C1.34 15 0.68 15 0 15 C0 14.01 0 13.02 0 12 C-0.66 12 -1.32 12 -2 12 C-1.67 13.32 -1.34 14.64 -1 16 C-1.66 16.33 -2.32 16.66 -3 17 C-4.04512751 12.50595172 -3.97037994 10.14816829 -2 6 C-1.32204472 4.00379834 -0.65266469 2.00461299 0 0 Z " fill="#C7C5CE" transform="translate(7,8)"/>
<path d="M0 0 C-0.20625 0.9075 -0.4125 1.815 -0.625 2.75 C-1.0127245 6.11027897 -0.80411967 7.24075815 1 10 C-0.32 10 -1.64 10 -3 10 C-3.28875 9.38125 -3.5775 8.7625 -3.875 8.125 C-4.93720042 5.86674235 -4.93720042 5.86674235 -7 4 C-6.8125 1.9375 -6.8125 1.9375 -6 0 C-3 -1 -3 -1 0 0 Z " fill="#DAC7E0" transform="translate(21,22)"/>
<path d="M0 0 C1.51400391 0.01740234 1.51400391 0.01740234 3.05859375 0.03515625 C4.07050781 0.04417969 5.08242188 0.05320312 6.125 0.0625 C7.29869141 0.07990234 7.29869141 0.07990234 8.49609375 0.09765625 C8.49609375 1.74765625 8.49609375 3.39765625 8.49609375 5.09765625 C5.19609375 5.09765625 1.89609375 5.09765625 -1.50390625 5.09765625 C-2.16390625 3.77765625 -2.82390625 2.45765625 -3.50390625 1.09765625 C-2.50390625 0.09765625 -2.50390625 0.09765625 0 0 Z " fill="#F8FAFB" transform="translate(23.50390625,26.90234375)"/>
<path d="M0 0 C0.33 0.66 0.66 1.32 1 2 C2.32 1.67 3.64 1.34 5 1 C5 1.99 5 2.98 5 4 C3.35 4.33 1.7 4.66 0 5 C0 5.99 0 6.98 0 8 C-0.99 8.33 -1.98 8.66 -3 9 C-5 6 -5 6 -5 3 C-4.01 2.67 -3.02 2.34 -2 2 C-2.33 3.32 -2.66 4.64 -3 6 C-2.34 6 -1.68 6 -1 6 C-0.67 4.02 -0.34 2.04 0 0 Z " fill="#BCAABD" transform="translate(10,17)"/>
<path d="M0 0 C0 1.98 0 3.96 0 6 C-1.98 6 -3.96 6 -6 6 C-5 4 -5 4 -4 3 C-5.32 3 -6.64 3 -8 3 C-8 2.34 -8 1.68 -8 1 C-5.10765685 0.17361624 -3.11257569 0 0 0 Z " fill="#9BEEFC" transform="translate(32,7)"/>
<path d="M0 0 C0.99 0 1.98 0 3 0 C3 3.3 3 6.6 3 10 C2.34 10 1.68 10 1 10 C0.67 9.01 0.34 8.02 0 7 C-0.66 7 -1.32 7 -2 7 C-1.34 4.69 -0.68 2.38 0 0 Z " fill="#EDEAEB" transform="translate(10,22)"/>
<path d="M0 0 C0.33 0.99 0.66 1.98 1 3 C1.66 3 2.32 3 3 3 C2.67 4.32 2.34 5.64 2 7 C1.34 7 0.68 7 0 7 C0.33 8.32 0.66 9.64 1 11 C0.34 11 -0.32 11 -1 11 C-2.26264601 6.70700357 -1.62950412 4.12168689 0 0 Z " fill="#8E6A88" transform="translate(12,8)"/>
<path d="M0 0 C0.99 0.99 1.98 1.98 3 3 C-1.625 6 -1.625 6 -5 6 C-3.63016497 2.83884224 -3.0109362 2.0072908 0 0 Z " fill="#EFEAEC" transform="translate(12,2)"/>
<path d="M0 0 C1.32 0 2.64 0 4 0 C4.1875 2.375 4.1875 2.375 4 5 C3.01 5.66 2.02 6.32 1 7 C0.67 4.69 0.34 2.38 0 0 Z " fill="#C6A8AB" transform="translate(8,8)"/>
<path d="M0 0 C1.33897583 0.95043374 2.67105427 1.91059147 4 2.875 C5.11375 3.67550781 5.11375 3.67550781 6.25 4.4921875 C6.8275 4.98976563 7.405 5.48734375 8 6 C8 6.66 8 7.32 8 8 C6.68 8 5.36 8 4 8 C2.66666667 5.33333333 1.33333333 2.66666667 0 0 Z " fill="#E7DAE5" transform="translate(14,24)"/>
<path d="M0 0 C0.125 5.75 0.125 5.75 -1 8 C-1.66 8 -2.32 8 -3 8 C-2.67 6.68 -2.34 5.36 -2 4 C-2.66 4 -3.32 4 -4 4 C-3.67 3.01 -3.34 2.02 -3 1 C-1 0 -1 0 0 0 Z " fill="#F0EEED" transform="translate(10,15)"/>
<path d="M0 0 C0.99 0.66 1.98 1.32 3 2 C1.25 6.875 1.25 6.875 -1 8 C-1.625 6.125 -1.625 6.125 -2 4 C-1.34 3.34 -0.68 2.68 0 2 C0 1.34 0 0.68 0 0 Z " fill="#BCE2EB" transform="translate(3,12)"/>
<path d="M0 0 C0.66 0.33 1.32 0.66 2 1 C0.35 2.65 -1.3 4.3 -3 6 C-3.66 5.67 -4.32 5.34 -5 5 C-5 4.01 -5 3.02 -5 2 C-2.625 0.9375 -2.625 0.9375 0 0 Z " fill="#B89EB0" transform="translate(18,6)"/>
<path d="M0 0 C1.98 0 3.96 0 6 0 C6.33 0.66 6.66 1.32 7 2 C4.69 2.66 2.38 3.32 0 4 C0 2.68 0 1.36 0 0 Z " fill="#CBDCDB" transform="translate(9,0)"/>
</svg>
